<?xml version="1.0" encoding="UTF-8"?>
<svg version="1.1" xmlns="http://www.w3.org/2000/svg" width="68" height="69">
<path d="M0 0 C22.44 0 44.88 0 68 0 C68 22.77 68 45.54 68 69 C45.56 69 23.12 69 0 69 C0 46.23 0 23.46 0 0 Z " fill="#F5F9FB" transform="translate(0,0)"/>
<path d="M0 0 C22.44 0 44.88 0 68 0 C68 22.77 68 45.54 68 69 C45.56 69 23.12 69 0 69 C0 46.23 0 23.46 0 0 Z M16 8 C15.36578125 8.38800781 14.7315625 8.77601562 14.078125 9.17578125 C7.55846985 13.83473836 3.03546522 22.78284833 1.4921875 30.55859375 C1.43640618 32.79383086 1.63728012 34.79546917 2 37 C2.07476562 37.79792969 2.14953125 38.59585938 2.2265625 39.41796875 C3.16024132 46.4205599 6.2569235 51.79662493 11 57 C13.1061906 58.27949942 13.1061906 58.27949942 15 59 C15 59.66 15 60.32 15 61 C24.51869585 65.88138249 33.24544763 67.82082031 43.828125 65.3359375 C52.66808409 62.21754703 58.2162362 57.05215303 62.4375 48.75 C66.07762534 40.93414505 67.42919897 33.78213069 65.31640625 25.234375 C61.80236224 15.72750074 55.78063193 9.87293935 47 5 C36.69868411 0.55629511 25.163148 1.85278021 16 8 Z " fill="#FBFCFD" transform="translate(0,0)"/>
<path d="M0 0 C2.61239535 1.77896325 4.81960306 3.71777134 7 6 C7.721875 6.7425 8.44375 7.485 9.1875 8.25 C14.30248546 16.01066759 16.34701085 23.73490799 15 33 C11.72535605 44.3567439 6.44389425 50.96570647 -3.6328125 56.8359375 C-10.85418216 60.38704007 -20.02892534 60.23717577 -27.5859375 57.8828125 C-30.44834177 56.67937888 -33.23756936 55.4166311 -36 54 C-36 53.34 -36 52.68 -36 52 C-36.58523437 51.7628125 -37.17046875 51.525625 -37.7734375 51.28125 C-42.71862355 48.43559908 -46.04974272 42.72628399 -47.89453125 37.43359375 C-48.4351746 34.94819016 -48.76282052 32.53127759 -49 30 C-49.11601563 29.29488281 -49.23203125 28.58976562 -49.3515625 27.86328125 C-50.1237438 20.1271686 -45.99863863 13.32484286 -42 7 C-39.59981563 4.1236657 -37.14803165 2.01781728 -34 0 C-33.00226562 -0.64388672 -33.00226562 -0.64388672 -31.984375 -1.30078125 C-22.08274463 -6.63665984 -9.67833843 -5.10626622 0 0 Z M-37.52734375 9.7421875 C-41.27613933 15.48967781 -42.56073848 20.59634254 -42.5 27.3125 C-42.49355469 28.05870605 -42.48710938 28.80491211 -42.48046875 29.57373047 C-42.19796863 38.13980327 -39.40531709 44.01401745 -33.1875 49.9375 C-27.50446875 54.44986938 -21.6707117 56.70878807 -14.359375 56.40625 C-6.8198399 55.1080519 -1.33069899 50.96332707 3.52734375 45.2578125 C7.27613933 39.51032219 8.56073848 34.40365746 8.5 27.6875 C8.49033203 26.56819092 8.49033203 26.56819092 8.48046875 25.42626953 C8.19796863 16.86019673 5.40531709 10.98598255 -0.8125 5.0625 C-6.49553125 0.55013062 -12.3292883 -1.70878807 -19.640625 -1.40625 C-27.1801601 -0.1080519 -32.66930101 4.03667293 -37.52734375 9.7421875 Z " fill="#2171B4" transform="translate(51,7)"/>
<path d="M0 0 C1.48596164 0.65138044 2.96780271 1.31270941 4.4375 2 C4.4375 4.64 4.4375 7.28 4.4375 10 C3.32375 8.8553125 3.32375 8.8553125 2.1875 7.6875 C1.28 6.800625 0.3725 5.91375 -0.5625 5 C-1.14 4.401875 -1.7175 3.80375 -2.3125 3.1875 C-5.84387434 1.3237191 -9.64863418 1.41820913 -13.5625 2 C-15.97371859 3.95633975 -15.97371859 3.95633975 -15.6875 7.625 C-15.64625 8.73875 -15.605 9.8525 -15.5625 11 C-15.01722656 11.17015625 -14.47195312 11.3403125 -13.91015625 11.515625 C2.18899563 16.68936954 2.18899563 16.68936954 6.4375 22 C8.17701425 25.47902851 7.88651673 29.19618684 7.4375 33 C5.36279719 37.39836995 2.79709923 40.0851923 -1.5859375 42.3046875 C-8.31192092 44.67074491 -14.16912954 42.74367766 -20.49609375 40.0703125 C-22.5625 39 -22.5625 39 -24.5625 37 C-24.7578125 34.8359375 -24.7578125 34.8359375 -24.6875 32.375 C-24.66042969 31.14910156 -24.66042969 31.14910156 -24.6328125 29.8984375 C-24.60960938 29.27195312 -24.58640625 28.64546875 -24.5625 28 C-23.9025 28 -23.2425 28 -22.5625 28 C-20.97402137 30.20571604 -19.60432517 32.51217315 -18.1953125 34.8359375 C-16.00786277 37.73509337 -14.11411605 38.73937699 -10.5625 39.3359375 C-6.99532793 39.40560883 -5.07970398 39.32798301 -2 37.375 C-0.29820488 35.02603084 -0.29820488 35.02603084 -0.5625 31.9375 C-1.74115469 28.47520186 -2.51515031 27.90268579 -5.5625 26 C-7.6907468 25.1818617 -9.83892903 24.41451925 -12 23.6875 C-18.42338402 21.30846888 -21.47925404 19.16649193 -24.5625 13 C-25.07118542 9.87521811 -25.09490903 7.8341653 -23.36328125 5.12109375 C-16.65654578 -2.97091201 -9.67820249 -3.871281 0 0 Z " fill="#1C6EB2" transform="translate(42.5625,14)"/>
<path d="M0 0 C0.66 0 1.32 0 2 0 C3.58847863 2.20571604 4.95817483 4.51217315 6.3671875 6.8359375 C8.13396234 9.17754817 9.27034103 10.00787395 12 11 C13.794375 11.2165625 13.794375 11.2165625 15.625 11.4375 C16.73875 11.623125 17.8525 11.80875 19 12 C19.99 13.485 19.99 13.485 21 15 C13.79236 15.46500903 8.44078681 14.33605971 2 11 C0 9 0 9 -0.1953125 6.8359375 C-0.17210938 6.02382813 -0.14890625 5.21171875 -0.125 4.375 C-0.10695313 3.55773438 -0.08890625 2.74046875 -0.0703125 1.8984375 C-0.04710938 1.27195313 -0.02390625 0.64546875 0 0 Z " fill="#2D79B8" transform="translate(18,42)"/>
<path d="M0 0 C7.32627475 -0.47266289 12.37384327 0.90133798 19 4 C19 6.64 19 9.28 19 12 C17.88625 10.8553125 17.88625 10.8553125 16.75 9.6875 C12.52757294 5.38002629 12.52757294 5.38002629 7 3.5 C3.80379266 2.96729878 2.39207346 2.11606499 0 0 Z " fill="#2A77B7" transform="translate(28,12)"/>
<path d="M0 0 C1.27875 -0.061875 2.5575 -0.12375 3.875 -0.1875 C4.95394531 -0.23970703 4.95394531 -0.23970703 6.0546875 -0.29296875 C6.69664063 -0.19628906 7.33859375 -0.09960938 8 0 C8.66 0.99 9.32 1.98 10 3 C7.03 3 4.06 3 1 3 C0.67 2.01 0.34 1.02 0 0 Z " fill="#4C8DC2" transform="translate(29,54)"/>
</svg>
